<svg xmlns="http://www.w3.org/2000/svg" width="124" height="175" fill="none"><path fill="#fff" d="M30 47l17.1-6v64.3l-17 6V47zm34.1-28.8L23 32.8c-6 2.1-10 8.1-10 14.9v69.7l-6.8 2.4-6 18.8 64-22.6V43.4L55 46.8l9.1-28.6zm25.7 72.1v-24l17.1-6v24l-17 6zM107 19.8v23.9l-17 6V25.8l17-6zm17.1-12c0-5.3-4.7-9-9.3-7.4l-42 14.8-6 18.9 6-2.2v81L114 98.5c6-2.1 10-8.1 10-15V55.6l-8.5-6.2L124 37V7.7zM24.8 147.5l-4 1.4v-3.2l4-1.4v3.2zm0 6.7l-4 1.4v-3.2l4-1.4v3.2zm1.8-14.3l-9.4 3.4v17.3l9.4-3.4c1-.3 1.7-1.4 1.7-2.4v-4.5l-2-1.6 2-3v-4.5c0-1-.8-1.6-1.7-1.3zm9 7.1v-10.3l-3.5 1.3v17.3l3.5-1.3 4.7-12v10.4l3.6-1.3v-17.3l-3.6 1.3-4.7 12zm30-20.9l-3.7 1.3-3 7.8-1 .4v-6.7l-3.6 1.2v6.7l-1 .4-3-5.7-3.6 1.3 3.8 7-4 10.4 3.7-1.3 3.2-8 1-.4v7l3.5-1.3v-7l1-.2 3.1 5.7 3.8-1.3-4.1-7.5 3.9-9.8zm2.8 16.4l10.9-3.9v-3.7l-7.4 2.6v-3.1l3.8-1.3v-3.7l-3.8 1.3v-3.1l7.4-2.6v-3.7l-11 3.9v17.3zm21.8-18.4l-4 1.5v-6.8l-3.5 1.3v17.3l3.5-1.3v-6.8l4-1.5v7l3.6-1.3v-17.3l-3.6 1.2v6.7zM9.4 159.6L6 160.8V151l3.5-1.3v9.9zm3.6-14.9l-8.8 3.1a3 3 0 00-1.9 2.7v11.6l-1.2.4-1.1 4.1 14.4-5v-3.8l-1.4.5v-13.6zm88.1-20.7v-10.4l-3.6 1.2v17.3l3.6-1.2 4.7-12v10.3l3.6-1.2v-17.3l-3.6 1.2-4.7 12zm12 2.6l10.9-3.8V119l-7.3 2.6v-3.1l3.7-1.3v-3.7l-3.8 1.3v-3.1l7.4-2.6v-3.7l-10.9 3.8v17.3zM61 162l-4 1.4V160l4-1.4v3.2zm0 6.6l-4 1.4v-3.2l4-1.4v3.2zm1.9-14.2l-9.4 3.3V175l9.4-3.3c1-.4 1.7-1.5 1.7-2.5v-4.5l-2-1.6 2-3v-4.5c0-1-.8-1.6-1.7-1.2zm13.1 2.3l-4.1 1.4v-3.2l4-1.4v3.2zm0 6.6l-4.1 1.5v-3.2l4-1.5v3.2zm1.8-14.2l-9.5 3.3v17.3l9.5-3.3c1-.3 1.7-1.4 1.7-2.5v-4.5l-2-1.5 2-3v-4.6c0-1-.8-1.5-1.7-1.2zm5.4 15.4l11-3.9V157l-7.4 2.6v-3l3.7-1.4v-3.7l-3.7 1.3v-3L94 147v-3.7l-10.9 3.9v17.3zm21.9-16.7l-4 1.5v-4.7l4-1.5v4.7zm1.6-9l-9.2 3.3v17.3l3.6-1.2V153l5.6-2c1.1-.4 2-1.6 2-2.8v-8c0-1-.9-1.7-2-1.3zm14.3 3.6l2.8-9.6-3.8 1.4-2 7.4-1 .3-1.9-6-3.8 1.3 1.3 3.3 1.6 4.3-3 9.8 3.7-1.3 2.2-7.7 1-.3 2.1 6.1 3.8-1.3-3-7.7z"/></svg>