<svg xmlns="http://www.w3.org/2000/svg" width="94" height="106" fill="none"><path fill="#F03F3F" d="M80.6 62.4l-13 4.7V51.8l13-4.7v15.3zM67.3 21L80 16.4v17.4l-12.7 4.7V21zm21 14.8a23 23 0 003.8-4.7 14.6 14.6 0 001.8-7.5V6.7c0-2.9-.8-4.8-2.4-5.8C90 0 88 0 85.6.8L53.7 12.5 49 27.8l4.4-1.7v59.7l32-11.7a13 13 0 006.2-5 13 13 0 002.4-7.4V39l-5.8-3.1zM35.2 79l-12.9 5V37.4l12.9-4.8V79zM42 33.8l6-19.2-30.5 11.2c-1.2.5-2.3 1.1-3.3 2a15.4 15.4 0 00-4.6 6.6C9.2 35.5 9 36.8 9 38v50.7l-4.2 1.5L0 105.6l47.3-17.5V31.8l-5.3 2z"/></svg>