<svg xmlns="http://www.w3.org/2000/svg" width="67" height="27" fill="none"><path fill="#fff" fill-rule="evenodd" d="M3.492 10.746c-.67 0-1.324-.082-1.963-.247-.64-.165-1.15-.372-1.529-.622L.78 8.2c.359.23.794.417 1.303.562.51.144 1.01.217 1.499.217.989 0 1.484-.245 1.484-.735 0-.23-.135-.394-.405-.494-.27-.1-.685-.185-1.244-.255-.66-.1-1.204-.215-1.634-.345-.43-.13-.801-.36-1.116-.69C.352 6.13.195 5.662.195 5.052c0-.51.147-.962.442-1.356.295-.395.724-.702 1.289-.922.564-.22 1.231-.33 2-.33.57 0 1.137.063 1.702.187.564.125 1.031.298 1.4.518L6.25 4.81c-.709-.4-1.483-.6-2.322-.6-.5 0-.875.07-1.124.21-.25.14-.375.32-.375.54 0 .25.135.425.405.525.27.1.699.195 1.288.284a13.8 13.8 0 011.619.353c.42.125.784.352 1.094.682.31.33.465.789.465 1.379 0 .5-.15.944-.45 1.333-.3.39-.737.692-1.311.907-.575.215-1.257.322-2.046.322zm15.571-8.303c1.01 0 1.811.297 2.406.892.594.594.891 1.486.891 2.675v4.617h-2.338V6.37c0-.64-.132-1.117-.397-1.431-.265-.315-.642-.473-1.131-.473-.55 0-.984.178-1.304.533-.32.354-.48.881-.48 1.58v4.048h-2.338V6.37c0-1.269-.51-1.904-1.528-1.904-.54 0-.97.178-1.29.533-.319.354-.479.881-.479 1.58v4.048H8.737V2.563h2.233v.93c.3-.34.667-.6 1.102-.78.435-.18.912-.27 1.431-.27.57 0 1.084.112 1.544.337.46.225.829.552 1.109.982.33-.42.747-.744 1.251-.974a3.947 3.947 0 011.656-.345zM5.545 15.878c.75 0 1.431.172 2.046.517.614.345 1.096.83 1.446 1.454.35.624.525 1.351.525 2.18 0 .83-.175 1.557-.525 2.181a3.713 3.713 0 01-1.446 1.454 4.109 4.109 0 01-2.046.517c-1.029 0-1.838-.325-2.428-.974v3.762H.78V15.998h2.233v.929c.58-.7 1.424-1.05 2.533-1.05zm-.405 6.385c.6 0 1.092-.203 1.477-.607.384-.405.577-.947.577-1.627S7 18.808 6.617 18.403c-.385-.404-.877-.607-1.477-.607-.599 0-1.091.203-1.476.607-.384.405-.577.947-.577 1.626 0 .68.193 1.222.577 1.627.385.404.877.607 1.476.607zm14.163-6.265v8.063H17.07v-.93c-.58.7-1.419 1.05-2.518 1.05-.76 0-1.446-.17-2.06-.51a3.649 3.649 0 01-1.447-1.453c-.35-.63-.524-1.36-.524-2.189s.175-1.558.524-2.188c.35-.63.832-1.114 1.447-1.454.614-.34 1.3-.51 2.06-.51 1.03 0 1.834.325 2.413.975v-.854h2.338zm-4.346 6.265c.59 0 1.079-.203 1.468-.607.39-.405.585-.947.585-1.627s-.195-1.221-.585-1.626c-.39-.404-.879-.607-1.468-.607-.6 0-1.094.203-1.484.607-.39.405-.584.947-.584 1.626 0 .68.195 1.222.584 1.627.39.404.884.607 1.484.607zm8.737-5.201a2.6 2.6 0 011.132-.885c.474-.2 1.021-.3 1.64-.3v2.159c-.26-.02-.434-.03-.524-.03-.67 0-1.194.187-1.573.562-.38.375-.57.937-.57 1.686v3.807h-2.338v-8.063h2.233v1.064zm9.022 6.61c-.23.17-.512.297-.847.382a4.221 4.221 0 01-1.041.127c-.97 0-1.714-.245-2.233-.734-.52-.49-.78-1.21-.78-2.159v-7.074h2.338v1.963h1.994v1.799h-1.993v3.282c0 .34.084.602.254.787.17.185.415.277.735.277.36 0 .679-.1.959-.3l.614 1.65zm6.22-7.794c.999 0 1.806.3 2.42.899.615.6.922 1.489.922 2.668v4.616H39.94v-4.256c0-.64-.14-1.117-.42-1.432-.28-.315-.684-.472-1.214-.472-.59 0-1.059.182-1.408.547-.35.365-.525.907-.525 1.626v3.987h-2.338v-8.063h2.233v.944a3.1 3.1 0 011.154-.787c.46-.185.964-.277 1.514-.277zm9.606 6.43c.42 0 .792-.063 1.117-.188.325-.125.627-.322.907-.592l1.243 1.35c-.759.868-1.868 1.303-3.327 1.303-.909 0-1.713-.177-2.413-.532-.699-.355-1.238-.847-1.618-1.476-.38-.63-.57-1.344-.57-2.144 0-.789.188-1.5.562-2.136a3.938 3.938 0 011.544-1.483c.654-.355 1.391-.532 2.21-.532.77 0 1.47.162 2.099.487.63.325 1.131.794 1.506 1.409.375.614.562 1.341.562 2.18l-5.965 1.154c.17.4.437.7.802.9.365.2.812.3 1.341.3zm-.344-4.662c-.59 0-1.07.19-1.44.57-.369.38-.564.904-.584 1.574l3.927-.765a1.762 1.762 0 00-.675-1.004c-.34-.25-.749-.375-1.228-.375zm7.973-.584a2.6 2.6 0 011.131-.885c.475-.2 1.022-.3 1.641-.3v2.159a8.43 8.43 0 00-.524-.03c-.67 0-1.194.187-1.574.562-.38.375-.57.937-.57 1.686v3.807h-2.337v-8.063h2.233v1.064zm6.909 7.119c-.67 0-1.324-.082-1.964-.247-.64-.165-1.149-.372-1.528-.622l.779-1.679c.36.23.794.417 1.304.562.51.145 1.009.218 1.498.218.99 0 1.484-.245 1.484-.735 0-.23-.135-.395-.404-.495-.27-.1-.685-.184-1.244-.254-.66-.1-1.204-.215-1.634-.345-.43-.13-.802-.36-1.117-.69-.314-.33-.472-.799-.472-1.408 0-.51.148-.962.443-1.357.294-.395.724-.702 1.288-.922.565-.22 1.232-.33 2.001-.33.57 0 1.137.063 1.701.188.565.125 1.032.297 1.401.517l-.779 1.664c-.71-.4-1.484-.6-2.323-.6-.5 0-.874.07-1.124.21-.25.14-.375.32-.375.54 0 .25.135.424.405.524.27.1.7.195 1.289.285.66.11 1.199.227 1.619.352.42.125.784.352 1.094.682.31.33.464.79.464 1.38 0 .499-.15.943-.45 1.333-.3.39-.736.692-1.31.907-.575.215-1.257.322-2.047.322z" clip-rule="evenodd"/><path fill="#FF531A" fill-rule="evenodd" d="M34.637 10.806l-1.259-1.169c-1 .78-2.168 1.17-3.507 1.17-.76 0-1.444-.123-2.053-.368-.61-.245-1.087-.587-1.431-1.027a2.343 2.343 0 01-.517-1.483c0-.65.182-1.222.547-1.716.364-.495.951-.967 1.76-1.417-.379-.39-.654-.762-.824-1.116a2.522 2.522 0 01-.254-1.102c0-.51.134-.96.404-1.349.27-.39.652-.692 1.147-.907C29.144.107 29.716 0 30.366 0c.909 0 1.638.217 2.188.652.55.435.824 1.022.824 1.761 0 .54-.162 1.02-.487 1.439-.325.42-.847.824-1.566 1.214l1.918 1.784c.23-.48.405-1.025.525-1.634l1.873.584c-.2.93-.52 1.724-.96 2.383l1.23 1.14-1.274 1.483zM30.366 1.59c-.35 0-.627.09-.832.27a.877.877 0 00-.307.689c0 .21.055.407.165.592.11.185.324.432.644.742.51-.27.864-.512 1.064-.727.2-.215.3-.447.3-.697 0-.26-.09-.47-.27-.63-.18-.16-.435-.24-.764-.24zm-.33 7.389c.73 0 1.384-.205 1.963-.615l-2.532-2.368c-.47.27-.805.535-1.005.795-.2.26-.3.554-.3.884 0 .39.17.704.51.944.34.24.794.36 1.364.36z" clip-rule="evenodd"/></svg>